<?xml version="1.0" encoding="utf-8"?>
<svg xmlns="http://www.w3.org/2000/svg" id="Capa_2" viewBox="0 0 99.27 76.05">
  <defs>
    <style>.cls-2{fill:#1d1d1b}</style>
  </defs>
  <g id="lletres">
    <path d="m54.22 19.39 2.05 23.75m5-14.92 2.05 23.75" style="fill: rgb(255, 255, 255);"/>
    <path d="M17.98 31.87A164 164 0 0 0 6.49 52.28c-.68 1.45 1.47 2.72 2.16 1.26a163 163 0 0 1 11.49-20.41c.89-1.35-1.27-2.6-2.16-1.26" class="cls-2" style="fill: rgb(255, 255, 255);"/>
    <path d="M17.67 32.62a468 468 0 0 1 1.5 18.33c.1 1.6 2.6 1.61 2.5 0a468 468 0 0 0-1.5-18.33c-.16-1.59-2.66-1.6-2.5 0" class="cls-2" style="fill: rgb(255, 255, 255);"/>
    <path d="M8.56 43.45q8.1.17 16.11-.82c.67-.08 1.25-.52 1.25-1.25 0-.61-.58-1.33-1.25-1.25q-8.03 1-16.11.82c-1.61-.04-1.61 2.46 0 2.5" class="cls-2" style="fill: rgb(255, 255, 255);"/>
    <path d="M26 33.64a710 710 0 0 0-.77 17.87c-.05 1.61 2.45 1.61 2.5 0q.28-8.94.77-17.87c.09-1.61-2.41-1.6-2.5 0" class="cls-2" style="fill: rgb(255, 255, 255);"/>
    <path d="M27.59 34.91c1.13-.33 1.92.95 1.96 1.95a2.5 2.5 0 0 1-.59 1.58c-.2.26-.86 1.13-1.13 1.04-1.42-.48-2.06 1.52-.96 2.28 3.15 2.2 4.94 5.93 7.64 8.61 1.14 1.14 2.91-.63 1.77-1.77-2.87-2.86-4.77-6.64-8.14-9l-.96 2.28c2.54.86 4.92-2.88 4.89-5.03-.04-2.61-2.39-5.16-5.12-4.36-1.54.46-.88 2.87.66 2.41Zm12.86 10.5-3.77-13.54c-.43-1.55-2.84-.89-2.41.66l3.77 13.54c.43 1.55 2.84.89 2.41-.66" class="cls-2" style="fill: rgb(255, 255, 255);"/>
    <path d="m36.18 33.21.3-.14c.08-.04.21-.13.3-.13l-.07.03.16-.06.31-.11a5 5 0 0 1 .82-.2l-.08.01.29-.01.14-.01.13.03.26.07.13.04-.12-.05.22.12c.27.17-.15-.15 0 0l.09.08q.13.15-.08-.12l.06.1q.09.16-.04-.12l.04.14q.04.2-.01-.11v.15q-.01.2.02-.11c-.04.05-.06.23-.08.3q-.07.19.04-.08l-.07.14-.27.46-.1.11q-.15.14.08-.06l-.13.07q.28-.11.09-.04l-.15.04-.3.06-.69.12-1.4.24c-.29.05-.6.33-.75.57-.16.27-.22.66-.13.96.23.7.85.99 1.54.87l1.32-.23c.41-.07.84-.11 1.23-.24 1.07-.34 1.74-1.32 2.1-2.35s.09-2.15-.73-2.82a3.8 3.8 0 0 0-2.58-.85 8 8 0 0 0-3.15.95c-.27.12-.5.47-.57.75-.08.3-.05.7.13.96.4.61 1.07.74 1.71.45Zm7.17 3.95v12.51c0 1.61 2.5 1.61 2.5 0V37.16c0-1.61-2.5-1.61-2.5 0m12.98-6.55c-2.7-.34-5.72-.59-8 1.19-1.94 1.51-2.38 4.01-.66 5.87 1.53 1.66 3.85 2.22 5.18 4.13.66.96 1.1 2.02 1.42 3.14.26.92.67 2.12.46 3.09-.28 1.3-1.91.92-2.79.49a4.5 4.5 0 0 1-2.42-2.8c-.43-1.55-2.84-.89-2.41.66a7.1 7.1 0 0 0 5.47 4.95c1.32.22 2.74 0 3.7-1a4.3 4.3 0 0 0 .95-3.35 14 14 0 0 0-2.65-7.03 11 11 0 0 0-2.96-2.5c-.81-.5-1.96-1.02-2.42-1.89-.59-1.12.9-2.09 1.8-2.39 1.7-.56 3.6-.27 5.34-.05.68.08 1.24-.63 1.25-1.25 0-.74-.58-1.17-1.25-1.25Zm2.7 5.02 1.27 14.53c.14 1.59 2.64 1.61 2.5 0l-1.27-14.53c-.14-1.59-2.64-1.61-2.5 0" class="cls-2" style="fill: rgb(255, 255, 255);"/>
    <path d="M60.43 36.68c.92.09 1.84 0 2.76-.01h.66l.37.02h.09q.21.04-.06 0c.16-.04.45.09.61.14l.17.06q.2.07-.05-.03l.16.08q.29.17-.22-.23l-.17-.63.11-.42.08-.11-.13.15-.27.28q-.29.28-.59.54l-1.31 1.09-.7.57-.29.2-.3.18-.16.08c-.03.02-.22.1-.05.03s-.02 0-.06.02l-.17.05-.17.04c-.16.05.31-.03.02 0-.65.06-1.28.53-1.25 1.25.03.63.55 1.31 1.25 1.25a5.4 5.4 0 0 0 2.88-1.27q1.12-.87 2.2-1.82.57-.48 1.03-1.07.44-.52.36-1.2a1.6 1.6 0 0 0-.79-1.11c-.87-.52-1.97-.64-2.96-.64s-2.03.11-3.05.01c-.65-.06-1.28.62-1.25 1.25.03.73.55 1.18 1.25 1.25m23.29-5.74c-2.46-.42-4.73 1.19-4.92 3.74s1.14 5.14 2.29 7.28c1.21 2.25 2.67 4.41 3.55 6.83.19.52.52 1.13.1 1.56s-1.33.57-1.87.71c-1.39.35-2.86.42-4.27.2-1.57-.25-2.25 2.16-.66 2.41 2.56.4 5.47.26 7.8-1 2.76-1.5 1.47-4.45.41-6.65-1.11-2.32-2.56-4.46-3.66-6.79-.52-1.11-1-2.33-1.17-3.56-.15-1.1.33-2.55 1.73-2.31 1.57.27 2.25-2.14.66-2.41Z" class="cls-2" style="fill: rgb(255, 255, 255);"/>
    <path d="M93.51 42.37A24.5 24.5 0 0 1 79.5 60.34a25 25 0 0 1-12.29 2.05c-4.52-.37-8.72-2.21-12.79-4.09s-8.12-4.01-12.55-4.39c-3.59-.31-7.83 1.16-9.29 4.74-.8 1.97-.08 3.45 1.55 4.63a64 64 0 0 0 5.36 3.43 70.6 70.6 0 0 0 40.29 9.15c1.59-.12 1.61-2.62 0-2.5A68.4 68.4 0 0 1 35.9 61.49c-1.05-.73-1.5-1.26-.72-2.49 2.39-3.72 7.64-2.73 11.1-1.49 4.05 1.45 7.84 3.54 11.83 5.14 7.56 3.02 15.77 3.15 23.19-.4s13.08-10.97 14.59-19.21c.29-1.57-2.12-2.25-2.41-.66ZM34.19.07C24.5 3.19 15.03 7.44 7.18 14.01a40 40 0 0 0-5.5 5.4c-1.4 1.74-2.46 4.21-.91 6.2 1.37 1.77 3.85 1.86 5.89 1.72a33 33 0 0 0 7.76-1.51c5.92-1.89 11.31-5.08 16.6-8.28l-1.51-1.96c-1.77 1.54-3.58 3.05-5.31 4.63-1.18 1.07-2.44 2.58-2.02 4.31.95 3.94 7.47 3.06 10.22 2.26 7.54-2.19 14.2-7.57 18.87-13.76l-2.16-1.26c-1.18 2.67-3.37 4.62-5.13 6.9-1.58 2.05-3.57 5.53-1.99 8.09s6.14 2.47 8.72 1.8a17.3 17.3 0 0 0 8.26-5.28c2.79-3.06 4.8-6.71 7.17-10.09l-2.16-1.26c-1.87 3.59-3.25 7.98-1 11.75 2.05 3.42 6.29 4 9.75 2.53 1.96-.83 3.61-2.22 5.13-3.68s3.08-3.01 4.43-4.67q.96-1.14 1.75-2.41c.36-.58.93-2.5 1.58-2.59s1.77.48 2.34.72q1.3.55 2.49 1.34a14.7 14.7 0 0 1 6.39 10.16c.23 1.59 2.63.91 2.41-.66-.95-6.71-6.53-12.88-13.31-14.03-2.38-.41-2.73 1.4-3.66 3.11-1 1.84-2.39 3.4-3.84 4.9-2.62 2.71-5.91 6.59-10.12 6.07-2.18-.27-3.56-1.99-3.94-4.07-.46-2.51.61-5.02 1.75-7.2.75-1.44-1.24-2.57-2.16-1.26-3.95 5.63-7.93 14.13-15.86 14.52-1.49.07-4.31-.06-4.14-2.08.12-1.5.98-2.88 1.86-4.05 1.83-2.43 4.17-4.46 5.42-7.29.66-1.48-1.19-2.55-2.16-1.26a37 37 0 0 1-14.36 11.49c-1.51.68-3.1 1.25-4.74 1.53-1.43.25-3.67.45-4.96-.4s1.32-2.74 1.99-3.32l4.25-3.71c1.08-.94-.31-2.69-1.51-1.96-4.12 2.48-8.28 4.99-12.73 6.83a38 38 0 0 1-6.83 2.13c-1.93.4-4.45.94-6.4.35-2.79-.84-.28-3.67.85-4.87a51 51 0 0 1 4.77-4.44 62 62 0 0 1 11.24-7.19 97 97 0 0 1 14.19-5.72c1.53-.49.87-2.91-.66-2.41Z" class="cls-2" style="fill: rgb(255, 255, 255);"/>
    <path d="M68.69 35.3c.41 6.44-.02 12.9-1.34 19.23-.33 1.57 2.08 2.24 2.41.66a74 74 0 0 0 1.43-19.89c-.1-1.6-2.6-1.61-2.5 0" class="cls-2" style="fill: rgb(255, 255, 255);"/>
    <path d="M69.1 36.18q3.9 4.9 6.92 10.4c.78 1.41 2.94.15 2.16-1.26a78 78 0 0 0-7.31-10.9c-.42-.53-1.33-.44-1.77 0-.52.52-.42 1.24 0 1.77Z" class="cls-2" style="fill: rgb(255, 255, 255);"/>
    <path d="M68.09 45.57a44 44 0 0 0 8.45-2.38c.63-.25 1.07-.84.87-1.54-.16-.6-.91-1.12-1.54-.87a44 44 0 0 1-8.45 2.38c-.67.12-1.04.93-.87 1.54.19.7.87.99 1.54.87" class="cls-2" style="fill: rgb(255, 255, 255);"/>
  </g>
</svg>